<svg xmlns="http://www.w3.org/2000/svg" viewBox="0 0 64 64">
  <defs>
    <linearGradient id="bg" x1="0%" y1="0%" x2="100%" y2="100%">
      <stop offset="0%" style="stop-color:#1976D2"/>
      <stop offset="100%" style="stop-color:#0d47a1"/>
    </linearGradient>
    <linearGradient id="face" x1="0%" y1="0%" x2="100%" y2="100%">
      <stop offset="0%" style="stop-color:#ffffff"/>
      <stop offset="100%" style="stop-color:#bbdefb"/>
    </linearGradient>
  </defs>
  <rect width="64" height="64" rx="14" fill="url(#bg)"/>
  <!-- 3D "A" — back face (shadow) -->
  <polygon points="32,6 10,54 17,54 21.5,42 42.5,42 47,54 54,54" fill="#0d3c7a" transform="translate(3,3)"/>
  <!-- 3D "A" — side extrusion -->
  <polygon points="54,54 57,57 50,57 47,54" fill="#0a3060"/>
  <polygon points="32,6 35,9 17,57 14,54 10,54" fill="#0a3060"/>
  <polygon points="32,6 35,9 57,57 54,54" fill="#10458a"/>
  <!-- 3D "A" — front face -->
  <polygon points="32,6 10,54 17,54 21.5,42 42.5,42 47,54 54,54" fill="url(#face)"/>
  <!-- Crossbar -->
  <rect x="23" y="34" width="18" height="5" rx="1" fill="url(#bg)"/>
  <!-- Inner triangle cutout hint -->
  <polygon points="32,18 24.5,38 39.5,38" fill="url(#bg)" opacity="0.9"/>
</svg>
